<svg version="1.1" xmlns="http://www.w3.org/2000/svg" viewBox="0 0 378.8966979980469 181.17643737793514" width="378.8966979980469" height="181.17643737793514">
  <!-- svg-source:excalidraw -->
  <defs>
    <style>
      svg {
        color: #f9f5d7;
        fill: #1d2021;
      }
      @media (prefers-color-scheme: light) {
        svg {
          color: #1d2021;
          fill: #f9f5d7;
        }
      }
    </style>
  </defs>
  <rect x="0" y="0" width="378.8966979980469" height="181.17643737793514" fill="fill"></rect><g stroke-linecap="round" transform="translate(279.0721435546875 41.356719970703125) rotate(0 44.91227722167969 31.8857421875)"><path d="M1.81 1.32 C25.46 -1.68, 49.59 -0.23, 88.37 -0.23 M0.51 -0.95 C18.96 0.27, 37.98 -0.3, 90.46 -0.24 M89.51 -1.16 C88.67 21.59, 87.91 43.82, 89.74 65.5 M90.77 0.7 C90.43 15.29, 88.97 30.98, 89.94 63.09 M91.05 63 C56.46 62.11, 20.07 61.36, -0.84 64.21 M89.29 63.14 C67.06 64.82, 44.56 63.43, -0.16 63.71 M1.79 63.25 C-0.46 44.42, 1.92 27.67, 0.07 -0.55 M-0.97 63.92 C0.26 39.69, 0.85 16.74, -0.96 0.93" stroke="currentColor" stroke-width="2" fill="none"></path></g><g transform="translate(296.95458984375 55.411346435546875) rotate(0 25.5 17.5)"><text x="0" y="25" font-family="Bradley Hand" font-size="28px" fill="currentColor" text-anchor="start" style="white-space: pre;" direction="ltr">//...</text></g><g transform="translate(283.4159851074219 43.255889892578125) rotate(0 4.5 10)"><text x="0" y="14" font-family="Bradley Hand" font-size="16px" fill="currentColor" text-anchor="start" style="white-space: pre;" direction="ltr">F</text></g><g transform="translate(48.58170403374584 10) rotate(0 22.5 17.5)"><text x="0" y="25" font-family="Bradley Hand" font-size="28px" fill="currentColor" text-anchor="start" style="white-space: pre;" direction="ltr">foo</text></g><g transform="translate(47.56444674831528 79.11274177542509) rotate(0 14 12.5)"><text x="0" y="18" font-family="Bradley Hand" font-size="20px" fill="currentColor" text-anchor="start" style="white-space: pre;" direction="ltr">obj</text></g><g transform="translate(47.05337015787791 116.57636515299419) rotate(0 26 17.5)"><text x="0" y="25" font-family="Bradley Hand" font-size="28px" fill="currentColor" text-anchor="start" style="white-space: pre;" direction="ltr">bar:</text></g><g transform="translate(54.084136962890625 113.26508076986283) rotate(0 -36.98894246419286 28.955678304036155)" stroke="none" fill="currentColor"><path d="M -30.59,2.54 Q -30.59,2.54 -31.81,2.56 -33.02,2.58 -34.24,2.66 -35.45,2.74 -35.19,3.84 -34.93,4.93 -35.00,6.19 -35.07,7.44 -35.03,8.53 -35.00,9.61 -34.97,10.69 -34.94,11.76 -34.92,12.82 -34.89,13.89 -34.87,15.02 -34.85,16.16 -34.86,17.30 -34.88,18.45 -34.95,19.72 -35.02,20.99 -35.19,22.19 -35.37,23.38 -35.77,24.71 -36.17,26.04 -36.88,27.05 -37.59,28.07 -38.38,28.90 -39.17,29.73 -40.09,30.47 -41.01,31.20 -41.93,28.47 -42.85,25.73 -41.60,25.80 -40.35,25.87 -39.26,26.45 -38.17,27.03 -37.20,27.97 -36.23,28.91 -35.65,29.95 -35.08,31.00 -34.79,32.40 -34.49,33.80 -34.41,34.95 -34.32,36.10 -34.30,37.27 -34.28,38.44 -34.28,39.58 -34.28,40.72 -34.24,42.09 -34.20,43.46 -34.17,44.54 -34.13,45.62 -34.07,46.86 -34.01,48.11 -33.98,49.25 -33.94,50.39 -33.85,51.68 -33.76,52.97 -32.79,53.49 -31.82,54.01 -30.88,54.02 -29.93,54.03 -29.31,54.13 -28.69,54.24 -28.14,54.53 -27.59,54.82 -27.16,55.28 -26.72,55.73 -26.46,56.30 -26.20,56.87 -26.13,57.50 -26.06,58.12 -26.20,58.73 -26.34,59.34 -26.66,59.88 -26.98,60.42 -27.46,60.82 -27.94,61.23 -28.52,61.46 -29.10,61.69 -29.73,61.72 -30.36,61.76 -30.96,61.59 -31.56,61.42 -32.08,61.07 -32.60,60.72 -32.98,60.22 -33.36,59.72 -33.56,59.12 -33.76,58.53 -33.76,57.90 -33.76,57.28 -33.56,56.68 -33.35,56.09 -32.98,55.59 -32.60,55.09 -32.08,54.74 -31.56,54.39 -30.95,54.22 -30.35,54.05 -29.72,54.09 -29.10,54.12 -28.51,54.36 -27.93,54.59 -27.46,54.99 -26.98,55.40 -26.66,55.94 -26.33,56.48 -26.20,57.09 -26.06,57.70 -26.13,58.32 -26.20,58.95 -26.46,59.52 -26.73,60.08 -27.16,60.54 -27.59,60.99 -28.15,61.29 -28.70,61.58 -29.32,61.68 -29.94,61.78 -29.94,61.78 -29.94,61.78 -32.51,61.42 -35.08,61.07 -36.15,60.57 -37.23,60.07 -38.36,59.23 -39.50,58.39 -40.17,57.33 -40.84,56.27 -41.16,54.75 -41.47,53.23 -41.55,52.03 -41.63,50.84 -41.67,49.76 -41.71,48.69 -41.74,47.48 -41.78,46.27 -41.82,45.16 -41.86,44.04 -41.87,42.88 -41.89,41.71 -41.92,40.64 -41.95,39.56 -41.94,38.42 -41.94,37.27 -42.01,36.05 -42.07,34.83 -42.50,33.79 -42.93,32.75 -44.03,32.43 -45.13,32.12 -46.11,29.49 -47.08,26.87 -45.86,25.77 -44.64,24.67 -43.76,23.85 -42.88,23.03 -42.61,21.95 -42.35,20.87 -42.20,19.76 -42.05,18.66 -41.99,17.41 -41.94,16.16 -41.92,15.02 -41.90,13.89 -41.87,12.82 -41.85,11.76 -41.82,10.68 -41.79,9.61 -41.74,8.40 -41.68,7.19 -41.50,5.96 -41.32,4.73 -41.12,3.52 -40.91,2.30 -40.40,1.13 -39.89,-0.03 -39.09,-1.06 -38.28,-2.10 -36.86,-2.42 -35.45,-2.74 -34.24,-2.66 -33.02,-2.58 -31.81,-2.56 -30.59,-2.54 -30.29,-2.50 -29.98,-2.46 -29.70,-2.35 -29.41,-2.25 -29.16,-2.07 -28.91,-1.90 -28.70,-1.67 -28.50,-1.44 -28.36,-1.17 -28.22,-0.90 -28.14,-0.60 -28.07,-0.30 -28.07,0.00 -28.07,0.30 -28.14,0.60 -28.22,0.90 -28.36,1.17 -28.50,1.44 -28.70,1.67 -28.91,1.90 -29.16,2.07 -29.41,2.25 -29.70,2.35 -29.98,2.46 -30.29,2.50 -30.59,2.54 -30.59,2.54 L -30.59,2.54 Z"></path></g><g transform="translate(163.060846964519 110.7117513020894) rotate(180.0480164043955 -36.98894246419286 28.955678304036155)" stroke="none" fill="currentColor"><path d="M -30.59,2.54 Q -30.59,2.54 -31.81,2.56 -33.02,2.58 -34.24,2.66 -35.45,2.74 -35.19,3.84 -34.93,4.93 -35.00,6.19 -35.07,7.44 -35.03,8.53 -35.00,9.61 -34.97,10.69 -34.94,11.76 -34.92,12.82 -34.89,13.89 -34.87,15.02 -34.85,16.16 -34.86,17.30 -34.88,18.45 -34.95,19.72 -35.02,20.99 -35.19,22.19 -35.37,23.38 -35.77,24.71 -36.17,26.04 -36.88,27.05 -37.59,28.07 -38.38,28.90 -39.17,29.73 -40.09,30.47 -41.01,31.20 -41.93,28.47 -42.85,25.73 -41.60,25.80 -40.35,25.87 -39.26,26.45 -38.17,27.03 -37.20,27.97 -36.23,28.91 -35.65,29.95 -35.08,31.00 -34.79,32.40 -34.49,33.80 -34.41,34.95 -34.32,36.10 -34.30,37.27 -34.28,38.44 -34.28,39.58 -34.28,40.72 -34.24,42.09 -34.20,43.46 -34.17,44.54 -34.13,45.62 -34.07,46.86 -34.01,48.11 -33.98,49.25 -33.94,50.39 -33.85,51.68 -33.76,52.97 -32.79,53.49 -31.82,54.01 -30.88,54.02 -29.93,54.03 -29.31,54.13 -28.69,54.24 -28.14,54.53 -27.59,54.82 -27.16,55.28 -26.72,55.73 -26.46,56.30 -26.20,56.87 -26.13,57.50 -26.06,58.12 -26.20,58.73 -26.34,59.34 -26.66,59.88 -26.98,60.42 -27.46,60.82 -27.94,61.23 -28.52,61.46 -29.10,61.69 -29.73,61.72 -30.36,61.76 -30.96,61.59 -31.56,61.42 -32.08,61.07 -32.60,60.72 -32.98,60.22 -33.36,59.72 -33.56,59.12 -33.76,58.53 -33.76,57.90 -33.76,57.28 -33.56,56.68 -33.35,56.09 -32.98,55.59 -32.60,55.09 -32.08,54.74 -31.56,54.39 -30.95,54.22 -30.35,54.05 -29.72,54.09 -29.10,54.12 -28.51,54.36 -27.93,54.59 -27.46,54.99 -26.98,55.40 -26.66,55.94 -26.33,56.48 -26.20,57.09 -26.06,57.70 -26.13,58.32 -26.20,58.95 -26.46,59.52 -26.73,60.08 -27.16,60.54 -27.59,60.99 -28.15,61.29 -28.70,61.58 -29.32,61.68 -29.94,61.78 -29.94,61.78 -29.94,61.78 -32.51,61.42 -35.08,61.07 -36.15,60.57 -37.23,60.07 -38.36,59.23 -39.50,58.39 -40.17,57.33 -40.84,56.27 -41.16,54.75 -41.47,53.23 -41.55,52.03 -41.63,50.84 -41.67,49.76 -41.71,48.69 -41.74,47.48 -41.78,46.27 -41.82,45.16 -41.86,44.04 -41.87,42.88 -41.89,41.71 -41.92,40.64 -41.95,39.56 -41.94,38.42 -41.94,37.27 -42.01,36.05 -42.07,34.83 -42.50,33.79 -42.93,32.75 -44.03,32.43 -45.13,32.12 -46.11,29.49 -47.08,26.87 -45.86,25.77 -44.64,24.67 -43.76,23.85 -42.88,23.03 -42.61,21.95 -42.35,20.87 -42.20,19.76 -42.05,18.66 -41.99,17.41 -41.94,16.16 -41.92,15.02 -41.90,13.89 -41.87,12.82 -41.85,11.76 -41.82,10.68 -41.79,9.61 -41.74,8.40 -41.68,7.19 -41.50,5.96 -41.32,4.73 -41.12,3.52 -40.91,2.30 -40.40,1.13 -39.89,-0.03 -39.09,-1.06 -38.28,-2.10 -36.86,-2.42 -35.45,-2.74 -34.24,-2.66 -33.02,-2.58 -31.81,-2.56 -30.59,-2.54 -30.29,-2.50 -29.98,-2.46 -29.70,-2.35 -29.41,-2.25 -29.16,-2.07 -28.91,-1.90 -28.70,-1.67 -28.50,-1.44 -28.36,-1.17 -28.22,-0.90 -28.14,-0.60 -28.07,-0.30 -28.07,0.00 -28.07,0.30 -28.14,0.60 -28.22,0.90 -28.36,1.17 -28.50,1.44 -28.70,1.67 -28.91,1.90 -29.16,2.07 -29.41,2.25 -29.70,2.35 -29.98,2.46 -30.29,2.50 -30.59,2.54 -30.59,2.54 L -30.59,2.54 Z"></path></g><g stroke-linecap="round"><g transform="translate(101.41968282063863 133.7098490397202) rotate(0 79.7771310210228 -22.880576595664024)"><path d="M-1.8 0.64 C49.84 -12.84, 98.02 -27.73, 161.35 -44.97 M0.53 0.07 C40.95 -11.49, 82.22 -23.65, 160.59 -46.4" stroke="currentColor" stroke-width="2" fill="none"></path></g><g transform="translate(101.41968282063863 133.7098490397202) rotate(0 79.7771310210228 -22.880576595664024)"><path d="M161.97 -47.04 L149.7 -37.42 L145.13 -47.04 L159.84 -47.11" stroke="none" stroke-width="0" fill="currentColor" fill-rule="evenodd"></path><path d="M159.24 -45.92 C156.82 -42.6, 152.12 -40.17, 149.52 -36.18 M160.99 -46.35 C157.52 -44, 154.4 -41.78, 148.95 -37.25 M148.59 -37.27 C148 -38.18, 148.52 -41.03, 145.5 -49.29 M149.83 -36.6 C147.79 -39.77, 146.94 -43.44, 145.44 -48.98 M145.02 -50.08 C149.13 -49.04, 151.07 -48.16, 161.94 -46.81 M145.75 -48.81 C149.96 -47.43, 153.03 -47.74, 160.47 -45.72 M160.59 -46.4 C160.59 -46.4, 160.59 -46.4, 160.59 -46.4 M160.59 -46.4 C160.59 -46.4, 160.59 -46.4, 160.59 -46.4" stroke="currentColor" stroke-width="2" fill="none"></path></g></g><g stroke-linecap="round"><g transform="translate(97.0044742160378 28.189541732654106) rotate(0 87.21404760420961 17.407072949679787)"><path d="M0.64 -0.28 C40.53 7.79, 79.24 18.11, 174.36 34.89 M0.07 -0.3 C62.9 11.47, 125.61 24.55, 172.93 35.12" stroke="currentColor" stroke-width="2" fill="none"></path></g><g transform="translate(97.0044742160378 28.189541732654106) rotate(0 87.21404760420961 17.407072949679787)"><path d="M172.29 35.51 L157.39 37.78 L162.65 25.28 L172.22 33.19" stroke="none" stroke-width="0" fill="currentColor" fill-rule="evenodd"></path><path d="M173.41 34.91 C170.36 34.31, 166.4 36.7, 158.64 37.79 M172.98 34.89 C167.49 35.96, 161.85 37.24, 157.56 37.95 M157.54 37.95 C160.19 35.66, 161.03 30.83, 160.39 26 M158.21 37.97 C159.61 34.29, 160.4 30.36, 160.71 25.47 M159.6 26.27 C163.3 27.49, 166.77 32.13, 172.52 34.39 M160.88 26.5 C165.04 28.41, 167.55 31.06, 173.61 35.85 M172.93 35.12 C172.93 35.12, 172.93 35.12, 172.93 35.12 M172.93 35.12 C172.93 35.12, 172.93 35.12, 172.93 35.12" stroke="currentColor" stroke-width="2" fill="none"></path></g></g></svg>
